<?xml version="1.0" encoding="UTF-8" standalone="no"?>
<!-- Created with Inkscape (http://www.inkscape.org/) -->

<svg
   xmlns:dc="http://purl.org/dc/elements/1.1/"
   xmlns:cc="http://creativecommons.org/ns#"
   xmlns:rdf="http://www.w3.org/1999/02/22-rdf-syntax-ns#"
   xmlns:svg="http://www.w3.org/2000/svg"
   xmlns="http://www.w3.org/2000/svg"
   xmlns:sodipodi="http://sodipodi.sourceforge.net/DTD/sodipodi-0.dtd"
   xmlns:inkscape="http://www.inkscape.org/namespaces/inkscape"
   id="svg2"
   version="1.1"
   inkscape:version="0.92.1 r15371"
   xml:space="preserve"
   width="360"
   height="170"
   viewBox="0 0 337.5 159.37499"
   sodipodi:docname="Buergernetz_Logo_Quer.svg"><metadata
     id="metadata8"><rdf:RDF><cc:Work
         rdf:about=""><dc:format>image/svg+xml</dc:format><dc:type
           rdf:resource="http://purl.org/dc/dcmitype/StillImage" /><dc:title></dc:title></cc:Work></rdf:RDF></metadata><defs
     id="defs6"><clipPath
       clipPathUnits="userSpaceOnUse"
       id="clipPath16"><path
         d="M 0,382.644 H 566.929 V 0 H 0 Z"
         id="path18"
         inkscape:connector-curvature="0" /></clipPath></defs><sodipodi:namedview
     pagecolor="#ffffff"
     bordercolor="#666666"
     borderopacity="1"
     objecttolerance="10"
     gridtolerance="10"
     guidetolerance="10"
     inkscape:pageopacity="0"
     inkscape:pageshadow="2"
     inkscape:window-width="3840"
     inkscape:window-height="2105"
     id="namedview4"
     showgrid="false"
     inkscape:zoom="1.9736361"
     inkscape:cx="319.76035"
     inkscape:cy="209.94366"
     inkscape:window-x="0"
     inkscape:window-y="27"
     inkscape:window-maximized="1"
     inkscape:current-layer="g10"
     showguides="false"
     units="px" /><g
     id="g10"
     inkscape:groupmode="layer"
     inkscape:label="Buergernetz_Logos+CI"
     transform="matrix(1.25,0,0,-1.25,0,159.37495)"><g
       id="g303"
       transform="translate(-39.225445,-63.693788)"><g
         transform="translate(140.6904,122.1221)"
         id="g20"><path
           inkscape:connector-curvature="0"
           id="path22"
           style="fill:#a7a5a6;fill-opacity:1;fill-rule:nonzero;stroke:none"
           d="M 0,0 H -4.052 V -4.891 H 0 c 1.761,0 2.6,1.118 2.6,2.459 C 2.6,-1.092 1.761,0 0,0 M -0.251,8.075 H -4.052 V 3.492 h 3.801 c 1.648,0 2.571,0.923 2.571,2.291 0,1.37 -0.923,2.292 -2.571,2.292 m 0.642,-16.43 h -8.328 v 19.894 h 7.993 c 3.885,0 6.149,-2.179 6.149,-5.588 0,-2.207 -1.454,-3.634 -2.459,-4.108 1.201,-0.558 2.739,-1.816 2.739,-4.471 0,-3.716 -2.544,-5.727 -6.094,-5.727" /></g><path
         inkscape:connector-curvature="0"
         id="path24"
         style="fill:#a7a5a6;fill-opacity:1;fill-rule:nonzero;stroke:none"
         d="m 159.693,139.14 h 3.102 v -3.494 h -3.102 z m -6.177,0 h 3.103 v -3.494 h -3.103 z m 4.64,-25.541 c -4.08,0 -7.323,2.765 -7.323,6.986 v 13.076 h 3.885 v -12.938 c 0,-2.289 1.343,-3.66 3.438,-3.66 2.096,0 3.465,1.371 3.465,3.66 v 12.938 h 3.857 v -13.076 c 0,-4.221 -3.242,-6.986 -7.322,-6.986" /><g
         transform="translate(177.354,130.1973)"
         id="g26"><path
           inkscape:connector-curvature="0"
           id="path28"
           style="fill:#a7a5a6;fill-opacity:1;fill-rule:nonzero;stroke:none"
           d="M 0,0 H -3.662 V -5.254 H 0 c 1.705,0 2.822,1.089 2.822,2.627 C 2.822,-1.09 1.705,0 0,0 m 3.019,-16.431 -3.886,7.936 h -2.795 v -7.936 H -7.546 V 3.464 h 7.797 c 4.053,0 6.456,-2.767 6.456,-6.091 0,-2.795 -1.705,-4.526 -3.634,-5.227 l 4.445,-8.577 z" /></g><g
         transform="translate(200.3525,115.8623)"
         id="g30"><path
           inkscape:connector-curvature="0"
           id="path32"
           style="fill:#a7a5a6;fill-opacity:1;fill-rule:nonzero;stroke:none"
           d="m 0,0 c -1.593,-1.649 -3.493,-2.264 -5.617,-2.264 -2.18,0 -3.969,0.782 -5.364,2.18 -2.014,2.013 -1.957,4.498 -1.957,7.936 0,3.437 -0.057,5.924 1.957,7.936 1.395,1.398 3.129,2.18 5.364,2.18 4.611,0 6.958,-3.019 7.49,-6.372 H -2.04 c -0.446,1.873 -1.593,2.906 -3.577,2.906 -1.062,0 -1.929,-0.419 -2.487,-1.061 -0.754,-0.838 -0.95,-1.76 -0.95,-5.589 0,-3.83 0.196,-4.779 0.95,-5.617 0.558,-0.642 1.425,-1.034 2.487,-1.034 1.174,0 2.124,0.419 2.768,1.118 0.641,0.726 0.893,1.619 0.893,2.655 V 5.728 H -5.617 V 8.969 H 1.901 V 6.063 C 1.901,3.185 1.397,1.453 0,0" /></g><g
         transform="translate(206.1914,113.7666)"
         id="g34"><path
           inkscape:connector-curvature="0"
           id="path36"
           style="fill:#a7a5a6;fill-opacity:1;fill-rule:nonzero;stroke:none"
           d="M 0,0 V 19.895 H 13.108 V 16.431 H 3.885 v -4.668 h 7.854 V 8.299 H 3.885 V 3.465 h 9.223 V 0 Z" /></g><g
         transform="translate(230.6445,130.1973)"
         id="g38"><path
           inkscape:connector-curvature="0"
           id="path40"
           style="fill:#a7a5a6;fill-opacity:1;fill-rule:nonzero;stroke:none"
           d="M 0,0 H -3.662 V -5.254 H 0 c 1.704,0 2.822,1.089 2.822,2.627 C 2.822,-1.09 1.704,0 0,0 m 3.019,-16.431 -3.886,7.936 h -2.795 v -7.936 H -7.546 V 3.464 h 7.797 c 4.052,0 6.456,-2.767 6.456,-6.091 0,-2.795 -1.705,-4.526 -3.633,-5.227 l 4.444,-8.577 z" /></g><g
         transform="translate(253.1401,113.7666)"
         id="g42"><path
           inkscape:connector-curvature="0"
           id="path44"
           style="fill:#a7a5a6;fill-opacity:1;fill-rule:nonzero;stroke:none"
           d="M 0,0 -7.881,12.21 V 0 h -3.885 V 19.895 H -8.3 L -0.419,7.713 V 19.895 H 3.465 V 0 Z" /></g><g
         transform="translate(261.2422,113.7666)"
         id="g46"><path
           inkscape:connector-curvature="0"
           id="path48"
           style="fill:#a7a5a6;fill-opacity:1;fill-rule:nonzero;stroke:none"
           d="M 0,0 V 19.895 H 13.107 V 16.431 H 3.885 v -4.668 h 7.854 V 8.299 H 3.885 V 3.465 h 9.222 V 0 Z" /></g><g
         transform="translate(285.751,130.1973)"
         id="g50"><path
           inkscape:connector-curvature="0"
           id="path52"
           style="fill:#a7a5a6;fill-opacity:1;fill-rule:nonzero;stroke:none"
           d="M 0,0 V -16.431 H -3.885 V 0 H -9.083 V 3.464 H 5.198 V 0 Z" /></g><g
         transform="translate(292.9038,113.7666)"
         id="g54"><path
           inkscape:connector-curvature="0"
           id="path56"
           style="fill:#a7a5a6;fill-opacity:1;fill-rule:nonzero;stroke:none"
           d="M 0,0 V 3.129 L 8.496,16.431 H 0.363 v 3.464 H 13.079 V 16.821 L 4.555,3.465 h 8.524 V 0 Z" /></g><g
         transform="translate(136.5522,102.0244)"
         id="g58"><path
           inkscape:connector-curvature="0"
           id="path60"
           style="fill:#a7a5a6;fill-opacity:1;fill-rule:nonzero;stroke:none"
           d="M 0,0 H -1.915 V -3.03 H 0 c 0.928,0 1.518,0.606 1.518,1.507 C 1.518,-0.622 0.928,0 0,0 M 0.103,-4.973 H -1.915 V -9.135 H -3.962 V 1.924 h 4.065 c 2.166,0 3.461,-1.569 3.461,-3.447 0,-1.881 -1.295,-3.45 -3.461,-3.45" /></g><g
         transform="translate(149.7759,102.0244)"
         id="g62"><path
           inkscape:connector-curvature="0"
           id="path64"
           style="fill:#a7a5a6;fill-opacity:1;fill-rule:nonzero;stroke:none"
           d="M 0,0 V -2.72 H 4.139 V -4.646 H 0 V -9.135 H -2.047 V 1.924 H 4.861 V 0 Z" /></g><g
         transform="translate(164.9453,100.6875)"
         id="g66"><path
           inkscape:connector-curvature="0"
           id="path68"
           style="fill:#a7a5a6;fill-opacity:1;fill-rule:nonzero;stroke:none"
           d="M 0,0 -1.326,-4.023 H 1.282 Z M 2.446,-7.798 1.827,-5.841 H -1.899 L -2.533,-7.798 H -4.67 l 3.816,11.059 h 1.606 l 3.83,-11.059 z" /></g><g
         transform="translate(178.7578,102.0244)"
         id="g70"><path
           inkscape:connector-curvature="0"
           id="path72"
           style="fill:#a7a5a6;fill-opacity:1;fill-rule:nonzero;stroke:none"
           d="M 0,0 V -2.72 H 4.14 V -4.646 H 0 V -9.135 H -2.047 V 1.924 H 4.861 V 0 Z" /></g><g
         transform="translate(193.3389,102.0244)"
         id="g74"><path
           inkscape:connector-curvature="0"
           id="path76"
           style="fill:#a7a5a6;fill-opacity:1;fill-rule:nonzero;stroke:none"
           d="M 0,0 V -2.72 H 4.14 V -4.646 H 0 V -9.135 H -2.048 V 1.924 h 6.91 V 0 Z" /></g><g
         transform="translate(205.8711,92.8896)"
         id="g78"><path
           inkscape:connector-curvature="0"
           id="path80"
           style="fill:#a7a5a6;fill-opacity:1;fill-rule:nonzero;stroke:none"
           d="M 0,0 V 11.059 H 6.908 V 9.135 H 2.047 V 6.539 H 6.186 V 4.612 H 2.047 V 1.926 H 6.908 V 0 Z" /></g><g
         transform="translate(226.8726,92.8896)"
         id="g82"><path
           inkscape:connector-curvature="0"
           id="path84"
           style="fill:#a7a5a6;fill-opacity:1;fill-rule:nonzero;stroke:none"
           d="M 0,0 -4.154,6.789 V 0 h -2.047 v 11.059 h 1.827 l 4.153,-6.772 v 6.772 H 1.827 V 0 Z" /></g><g
         transform="translate(242.6309,92.8896)"
         id="g86"><path
           inkscape:connector-curvature="0"
           id="path88"
           style="fill:#a7a5a6;fill-opacity:1;fill-rule:nonzero;stroke:none"
           d="M 0,0 V 4.629 H -3.55 V 0 H -5.598 V 11.059 H -3.55 V 6.539 H 0 v 4.52 H 2.048 V 0 Z" /></g><g
         transform="translate(257.8438,101.5273)"
         id="g90"><path
           inkscape:connector-curvature="0"
           id="path92"
           style="fill:#a7a5a6;fill-opacity:1;fill-rule:nonzero;stroke:none"
           d="m 0,0 c -0.294,0.358 -0.751,0.59 -1.311,0.59 -0.56,0 -1.031,-0.232 -1.325,-0.59 -0.398,-0.467 -0.502,-0.979 -0.502,-3.107 0,-2.129 0.104,-2.641 0.502,-3.107 0.294,-0.357 0.765,-0.592 1.325,-0.592 0.56,0 1.017,0.235 1.311,0.592 0.398,0.466 0.516,0.978 0.516,3.107 C 0.516,-0.979 0.398,-0.467 0,0 m 1.518,-7.519 c -0.737,-0.777 -1.636,-1.212 -2.829,-1.212 -1.193,0 -2.106,0.435 -2.843,1.212 -1.061,1.119 -1.031,2.501 -1.031,4.412 0,1.911 -0.03,3.293 1.031,4.411 0.737,0.777 1.65,1.212 2.843,1.212 1.193,0 2.092,-0.435 2.829,-1.212 1.059,-1.118 1.046,-2.5 1.046,-4.411 0,-1.911 0.013,-3.293 -1.046,-4.412" /></g><g
         transform="translate(270.4346,102.0244)"
         id="g94"><path
           inkscape:connector-curvature="0"
           id="path96"
           style="fill:#a7a5a6;fill-opacity:1;fill-rule:nonzero;stroke:none"
           d="M 0,0 V -2.72 H 4.139 V -4.646 H 0 V -9.135 H -2.048 V 1.924 H 4.861 V 0 Z" /></g><g
         transform="translate(282.9673,92.8896)"
         id="g98"><path
           inkscape:connector-curvature="0"
           id="path100"
           style="fill:#a7a5a6;fill-opacity:1;fill-rule:nonzero;stroke:none"
           d="M 0,0 V 11.059 H 6.908 V 9.135 H 2.047 V 6.539 H 6.186 V 4.612 H 2.047 V 1.926 H 6.908 V 0 Z" /></g><g
         transform="translate(303.9688,92.8896)"
         id="g102"><path
           inkscape:connector-curvature="0"
           id="path104"
           style="fill:#a7a5a6;fill-opacity:1;fill-rule:nonzero;stroke:none"
           d="M 0,0 -4.155,6.789 V 0 h -2.047 v 11.059 h 1.827 l 4.154,-6.772 v 6.772 H 1.826 V 0 Z" /></g><g
         transform="translate(131.3677,109.0908)"
         id="g106"><path
           inkscape:connector-curvature="0"
           id="path108"
           style="fill:#d3d2d2;fill-opacity:1;fill-rule:nonzero;stroke:none"
           d="M 0,0 H 175.734" /></g><path
         inkscape:connector-curvature="0"
         id="path110"
         style="fill:#a7a5a6;fill-opacity:1;fill-rule:nonzero;stroke:none"
         d="M 307.102,108.366 H 131.368 v 1.447 h 175.734 z" /><g
         transform="translate(109.1523,111.0088)"
         id="g112"><path
           inkscape:connector-curvature="0"
           id="path114"
           style="fill:#a7a5a6;fill-opacity:1;fill-rule:evenodd;stroke:none"
           d="m 0,0 c -2.297,0.765 -3.072,3.084 -4.979,4.243 -0.49,-0.944 0.573,-4.231 -0.548,-5.54 -0.972,0.661 -1.493,1.79 -2.086,2.843 0.619,1.218 1.529,2.153 1.593,3.914 C -3.868,3.911 1.705,4.822 0,0 m -0.355,-4.512 c -1.56,0.685 -1.777,2.746 -2.922,3.858 -0.713,-1.534 -0.813,-3.662 -1.783,-4.941 -1.872,0.85 -2.147,3.334 -3.145,5.085 -1.566,-1.172 -1.546,-3.892 -3.011,-5.163 -1.866,0.44 -1.347,3.325 -2.315,4.685 -1.39,-0.871 -1.279,-3.208 -3.032,-3.728 -0.159,1.153 -0.572,2.044 -0.455,3.48 1.801,0.742 3.275,1.801 4.268,3.334 0.288,-1.783 0.572,-3.569 1.7,-4.489 1.23,0.825 1.587,2.497 2.829,3.315 0.631,-1.293 1.426,-2.417 2.506,-3.247 1.313,0.743 1.654,2.433 1.582,4.527 1.369,-1.157 2.543,-2.514 4.349,-3.225 0.079,-1.425 -0.173,-2.53 -0.571,-3.491 m -2.614,-4.133 c -1.005,0.288 -1.302,1.297 -1.67,2.234 0.543,1.226 1.369,2.176 1.594,3.709 1.769,-1.514 1.561,-4.299 0.076,-5.943 m -2.427,-2.901 c -1.044,0.177 -1.208,1.257 -1.872,1.823 0.551,0.816 1.392,1.346 1.818,2.279 0.912,-0.244 0.887,-1.447 1.667,-1.827 -0.39,-0.901 -1.139,-1.455 -1.613,-2.275 m -2.856,-1.469 c -0.806,0.141 -0.927,0.987 -1.455,1.415 0.216,0.536 0.736,0.772 0.804,1.447 0.125,-0.059 0.797,-0.501 0.822,0.009 0.65,-0.165 0.597,-1.048 1.244,-1.213 -0.243,-0.775 -0.876,-1.17 -1.415,-1.658 m -2.745,6.32 c 0.835,1.412 2.047,2.458 2.407,4.335 1.078,-1.18 1.571,-2.955 2.718,-4.066 -0.452,-1.381 -1.528,-2.155 -2.422,-3.105 -1.07,0.773 -1.91,1.78 -2.703,2.836 m -0.349,-4.924 c -0.532,0.772 -1.332,1.266 -1.872,2.024 0.53,0.768 1.219,1.377 1.612,2.278 0.731,-0.843 1.537,-1.609 2.085,-2.639 -0.598,-0.565 -0.896,-1.422 -1.825,-1.663 m -2.572,8.782 c 0.447,-1.478 1.125,-2.724 1.896,-3.871 -0.61,-0.759 -1.196,-1.536 -1.821,-2.276 -2.009,1.301 -1.491,4.602 -0.075,6.147 m -2.34,6.53 c 2.238,0.18 3.942,0.885 5.519,1.709 0.071,-1.795 1.021,-2.691 1.691,-3.874 -0.639,-0.862 -1.272,-1.729 -1.811,-2.688 -1.676,0.752 -0.22,4.549 -0.891,5.318 -1.459,-0.754 -2.604,-3.523 -4.664,-4.362 -1.071,0.927 -0.474,2.942 0.156,3.897 M 16.79,29.229 c -0.962,-0.362 -1.537,0.459 -1.747,1.198 0.092,0.306 0.353,0.446 0.328,0.871 -0.588,0.069 -0.871,0.436 -0.981,0.979 -1.007,-0.35 -1.595,0.656 -2.182,1.089 -0.578,-0.033 -1.029,0.061 -1.087,0.546 0.174,0.807 0.833,1.127 1.087,1.851 -0.293,0.508 -0.391,1.468 -0.106,1.961 -1.127,0.797 0.219,1.739 0.762,2.394 -1.278,0.393 -2.134,1.208 -2.833,2.177 -0.26,-0.394 -0.31,-0.996 -0.874,-1.088 -1.789,1.149 -3.251,2.63 -4.793,4.028 0.273,0.713 0.35,1.248 0,2.069 0.574,1.604 1.508,2.848 2.94,3.595 -0.084,0.664 0.143,1.019 0.109,1.633 -0.919,0.571 -2.017,0.96 -2.725,1.741 -0.14,1.566 -0.193,3.22 -0.436,4.683 1.374,1.098 2.675,2.265 5.014,2.395 0,0.436 -0.216,0.654 -0.216,1.088 0.268,0.421 0.806,0.574 1.308,0.763 0.777,-0.342 1.61,-1.061 2.506,-0.654 0.89,-1.226 2.572,0.135 3.598,0.436 -0.177,1.123 -1.236,2.129 -2.399,1.308 -0.289,0.257 -0.655,0.431 -0.763,0.871 1.108,0.8 0.134,2.437 -0.436,3.157 0.243,0.266 0.239,0.778 0.218,1.307 -0.579,0.256 -0.884,0.786 -1.198,1.307 C 11.214,69.362 9.97,71.339 9.05,70.715 9.154,69.866 9.927,70.056 9.922,69.3 9.913,68.347 7.884,67.419 7.089,68.429 c -0.014,1.173 0.033,2.067 -0.765,2.613 0.164,0.344 0.589,0.428 0.543,0.98 -1.154,-0.081 -1.684,-0.99 -2.94,-0.654 -1.005,1.465 -2.623,2.319 -3.381,4.028 0.08,0.467 0.79,0.301 1.308,0.328 1.241,1.333 -0.416,2.404 -0.435,4.029 -1.95,0.06 -3.336,-0.443 -5.34,-0.326 -0.147,0.181 -0.289,0.363 -0.222,0.762 -0.636,-0.157 -1.19,-0.084 -1.851,0 -0.179,-0.343 0.222,-0.899 0.219,-1.417 -0.049,-0.314 -0.47,-0.256 -0.544,-0.543 0.146,-0.25 0.31,-0.486 0.325,-0.872 -0.239,-0.601 -1.086,-0.651 -0.652,-1.633 -0.197,-0.311 -0.86,-0.158 -1.202,-0.328 0.073,-0.395 -0.073,-0.58 -0.216,-0.76 -0.355,0.063 -0.509,-0.075 -0.764,-0.11 -0.51,-0.797 -0.014,-2.599 -1.635,-2.286 0.06,-0.386 -0.094,-0.561 -0.328,-0.654 -0.972,0.301 -1.27,-0.575 -1.744,-1.088 0.662,-1.084 0.429,-2.039 0.764,-3.157 -0.538,-1.126 -2.091,-1.595 -1.635,-3.376 -0.421,-0.705 -1.459,-0.793 -2.288,-1.089 0.068,-0.547 0.692,-0.541 0.762,-1.089 0.262,0.067 0.499,0.157 0.872,0.109 1.574,-1.188 0.143,-2.845 -1.743,-2.287 0.101,-0.225 0.066,-0.481 0.004,-0.765 0.306,-0.021 0.608,-0.026 0.901,0.004 C -7.471,54.139 1.396,50.906 1.769,38.97 -0.049,28.457 -7.205,23.146 -13.552,17.05 c 2.761,-1.667 5.473,-3.387 5.636,-7.719 1.304,0.62 2.069,1.765 4.083,1.692 C -4.199,9.556 -5.256,8.765 -6.672,8.321 -4.228,7.504 -1.583,6.889 -0.268,4.918 -2.911,4.495 -5.434,5.99 -7.07,7.293 -6.455,5.325 -7.159,3.306 -8.239,2.357 c -1.284,0.76 -1.849,2.258 -1.698,4.491 -1.901,-1.049 -3.719,-2.18 -6.539,-2.338 1.082,2.12 3.463,2.971 6.113,3.561 -1.011,0.833 -2.531,1.144 -2.701,2.834 1.741,0.267 2.486,-0.495 3.5,-0.979 0.328,2.14 -2.309,4.637 -5.595,4.438 -5.649,-6.171 -11.386,-12.257 -11.398,-23.92 1.3,-7.212 5.458,-11.491 10.249,-15.13 0.083,0.054 0.176,0.098 0.286,0.123 -0.31,0.976 0.305,1.84 1.526,1.633 -1.343,3.482 3.982,2.654 5.013,1.2 0.069,-0.46 -0.592,-0.551 -0.327,-0.871 1.102,-0.029 3.168,0.046 2.399,-1.418 0.398,-0.073 0.794,-0.15 1.307,-0.107 0.219,-0.507 0.345,-0.622 0.873,-0.654 0.26,-0.578 0.463,-1.245 0,-1.741 0.731,-0.04 0.802,-0.968 1.418,-1.308 0.222,-0.123 0.61,0.025 0.869,-0.109 0.457,-0.23 0.653,-0.666 1.201,-0.761 0.445,-0.077 0.886,0.516 1.308,0 -0.116,0.98 0.366,2.127 1.526,2.178 0.355,0.652 -0.156,1.657 0.656,1.958 -0.163,0.093 -0.237,0.276 -0.221,0.544 0.739,0.318 0.853,1.256 0.765,2.397 0.182,0.144 0.366,0.289 0.763,0.219 0.081,0.516 -0.121,0.748 -0.111,1.197 0.33,0.514 0.809,0.929 1.421,0.87 -0.366,0.323 -1.221,-0.074 -1.31,0.655 -0.134,1.092 2.325,0.793 3.053,1.306 0.575,-0.067 0.578,-0.627 1.088,-0.217 -0.252,1.263 -0.235,2.724 -0.106,4.356 0.146,0.396 0.549,0.536 0.654,0.979 0.116,1.51 -0.758,1.549 -0.983,2.831 0.569,1.908 -1.334,4.023 0,5.554 -0.044,0.587 0.003,1.084 0.218,1.415 -0.218,0.183 -0.508,0.292 -0.544,0.653 0.15,0.429 0.117,1.043 0.544,1.198 C 7.41,-0.644 8.325,-1.25 8.502,-0.823 6.533,-0.978 6.411,0.713 6.107,2.225 6.783,2.817 7.655,3.218 8.067,4.076 8.403,4.047 8.558,3.84 8.83,3.749 c 0.073,0.618 -0.069,1.45 0.655,1.415 0.041,0.649 0.239,1.142 0.655,1.417 0.82,-0.057 0.8,0.724 1.308,0.981 0.385,0.057 0.267,-0.387 0.654,-0.329 0.257,0.352 0.912,0.599 1.307,0.218 0.251,0.874 1.163,1.09 1.524,1.853 0.252,0.113 0.66,0.068 0.877,0.216 -0.692,0.454 -1.477,3.012 0.326,2.832 0.142,1.548 -1.749,1.436 -1.31,2.94 -0.326,0.073 -0.667,0.131 -0.763,0.435 0.051,0.814 0.004,1.529 -0.326,1.961 0.536,0.407 0.83,1.056 1.417,1.415 -1.258,-0.091 -2.343,-0.018 -2.29,1.197 0.09,0.273 0.381,0.344 0.545,0.545 -1.1,0.399 0.292,0.878 0.217,1.415 -0.033,0.26 -0.782,0.478 -0.871,0.981 -0.113,0.638 0.178,0.991 0.654,1.632 0.783,-0.404 0.877,0.872 1.524,0.22 -0.012,0.557 0.272,0.818 0.766,0.87 0.041,0.514 -0.739,0.206 -0.656,0.761 0.168,0.673 0.966,0.772 1.526,0.763 0.491,0.503 0.607,1.082 0.221,1.742" /></g><g
         transform="translate(77.6475,140.4307)"
         id="g116"><path
           inkscape:connector-curvature="0"
           id="path118"
           style="fill:#a7a5a6;fill-opacity:1;fill-rule:evenodd;stroke:none"
           d="M 0,0 1.156,1.835 1.587,1.564 3.648,4.825 1.55,6.147 C 1.605,6.313 1.681,6.474 1.772,6.62 2.199,7.298 2.996,7.701 3.896,7.701 4.518,7.701 5.137,7.517 5.693,7.167 7.104,6.277 7.644,4.588 6.892,3.396 6.799,3.25 6.687,3.114 6.561,2.992 L 4.463,4.313 2.404,1.05 2.835,0.778 1.677,-1.056 Z M 7.432,-7.994 C 7.91,-8.197 7.869,-8.933 7.863,-9.628 7.226,-9.591 7.502,-8.612 7.432,-7.994 m -4.568,-28.55 c 0.089,8.958 4.974,13.242 7.551,19.773 -0.575,3.353 -2.442,5.385 -5.819,5.872 -5.372,-1.84 2.623,-7.211 2.487,-2.018 0.429,0.625 0.771,-0.578 1.238,-0.601 -2.295,-7.742 -11.108,2.616 -3.127,3.857 3.945,-0.46 5.609,-3.256 6.653,-6.681 6.125,9.417 17.635,13.591 18.939,27.702 -0.637,6.682 -4.608,9.95 -8.576,13.215 -5.693,-0.985 -6.564,-3.5 -7.329,-5.095 l 0.031,-0.019 -0.515,-4.281 0.032,-0.02 -0.26,-0.85 -2.163,1.36 -0.274,-0.437 2.281,-1.436 -0.261,-0.851 -2.478,1.561 -0.276,-0.437 2.6,-1.635 -0.261,-0.852 -2.797,1.762 -0.276,-0.438 2.916,-1.836 -0.261,-0.85 L 9.804,12.182 9.53,11.744 12.763,9.708 12.502,8.858 8.02,1.75 7.312,2.196 4.078,-2.927 1.858,-1.527 3.393,0.904 2.963,1.177 4.59,3.755 6.595,2.491 6.652,2.538 C 6.883,2.721 7.079,2.938 7.233,3.182 8.104,4.561 7.509,6.502 5.911,7.51 5.29,7.9 4.592,8.106 3.896,8.106 2.854,8.106 1.933,7.631 1.43,6.837 1.276,6.592 1.164,6.322 1.099,6.034 L 1.082,5.964 3.089,4.7 1.462,2.122 1.03,2.393 l -1.535,-2.434 -2.221,1.397 3.234,5.123 -0.711,0.448 4.485,7.105 0.657,0.603 3.049,-1.92 0.277,0.435 -2.93,1.846 0.656,0.602 2.731,-1.721 0.276,0.437 -2.613,1.645 0.659,0.602 2.412,-1.52 0.274,0.437 -2.293,1.444 0.656,0.601 2.098,-1.319 0.276,0.437 -1.978,1.245 0.658,0.601 0.029,-0.02 3.592,2.276 c 0.95,1.192 4.235,4.801 6.144,5.022 -0.991,0.909 -2.147,1.643 -3.422,2.261 -0.798,-0.695 -1.906,0.102 -2.249,0.948 -0.044,0.016 -0.089,0.032 -0.131,0.048 -0.486,-0.376 -1.013,0.136 -1.224,0.512 -0.505,-0.81 0.463,-1.312 0.327,-2.394 C 11.26,26.165 11.052,24.45 8.613,24.961 8.314,24.986 8.366,25.366 8.18,25.506 7.209,24.563 4.943,25.049 4.037,25.94 H 3.274 C 3.031,26.244 2.728,27.06 2.401,26.92 2.649,26.694 2.742,26.316 2.839,25.94 2.236,25.272 1.619,24.671 1.858,23.436 0.015,23.026 -2.42,23.208 -4.573,23.11 c -0.068,-0.624 -0.369,-1.011 -0.873,-1.198 -0.405,0.285 -0.75,0.184 -1.09,-0.109 0.243,-0.013 0.046,-0.462 0.108,-0.654 -0.311,-0.463 -1.057,-0.183 -1.308,-0.217 0.146,-0.072 0.204,-0.234 0.22,-0.435 -0.942,-0.985 -1.281,-2.517 -1.964,-3.485 0.73,-0.072 0.284,-0.743 0.219,-1.199 0.616,-0.453 0.288,-1.283 0.98,-1.741 0.506,0.149 0.812,0.496 1.09,0.87 -1.264,0.156 -0.603,1.588 0.219,1.743 1.062,-1.481 2.963,-2.122 2.726,-4.9 -1.543,-0.565 -3.246,-0.967 -4.471,-1.851 0.652,-0.457 1.592,-0.102 2.508,-0.109 0.337,-0.373 1.265,-1.329 0.435,-1.851 -0.324,-0.027 -0.537,0.431 -0.654,0 0.951,-1.249 -0.03,-2.272 0.436,-3.375 -0.237,-0.343 -0.734,-0.43 -0.544,-1.2 -0.116,-0.209 -0.502,-0.151 -0.655,-0.326 0.34,-1.555 -0.314,-2.872 0,-4.247 -0.402,-0.323 -0.374,-1.072 -0.872,-1.306 -0.863,0.442 -1.298,-0.759 -2.288,-0.979 -1.108,-0.247 -2.491,0.203 -3.599,0 -0.817,-0.15 -1.034,-0.804 -1.633,-0.98 -0.121,-0.035 -0.4,0.246 -0.436,-0.11 0.34,-0.348 1.099,-0.279 1.09,-0.979 -0.565,-0.555 -2.117,-0.81 -2.944,-0.436 -0.271,-0.328 -0.462,-1.008 -1.089,-0.653 -0.12,-0.32 -0.311,-0.562 -0.219,-1.088 -0.263,-0.174 -0.465,-0.406 -0.983,-0.328 -0.076,-0.332 0.19,-0.321 0.112,-0.654 -0.235,-0.273 -0.674,-0.342 -0.871,-0.652 0.713,-0.122 0.565,-1.042 0.216,-1.416 0.791,-0.021 1.255,-1.564 0.326,-1.742 -0.395,0.112 -0.674,0.343 -1.089,0.435 -0.784,-0.1 -1.353,-0.703 -2.179,-0.435 -1.237,-1.045 -3.83,-1.612 -2.618,-4.139 0.924,-0.165 1.608,-0.571 2.835,-0.434 0.177,-0.987 1.333,-0.993 1.527,-1.96 0.524,-0.202 1.398,-0.053 1.636,-0.545 -0.218,-0.537 0.227,-1.073 0.543,-1.415 0.433,0.27 1.252,0.309 1.419,-0.218 0.011,-0.631 -0.208,-1.029 -0.218,-1.633 -0.478,-0.287 -1.047,-0.481 -1.856,-0.436 0.209,-0.825 -0.316,-0.916 -0.435,-1.415 0.538,-0.132 0.283,-0.572 0.435,-0.981 0.487,-1.29 2.443,-2.095 1.09,-3.157 -1.196,0.255 -2.721,0.184 -2.505,1.85 -0.941,0.305 -1.457,1.557 -2.508,0.544 -0.748,0.29 -0.321,1.152 -0.762,1.634 -0.818,-0.151 -1.33,0.085 -2.073,0.327 -0.361,-0.316 0.099,-0.534 -0.108,-0.98 -0.201,-0.435 -0.931,-0.568 -0.981,-0.981 -0.078,-0.65 0.479,-0.759 0.763,-1.413 0.637,-3.357 3.989,-4.002 5.013,-6.97 -0.541,-0.84 -1.664,-1.551 -2.724,-1.525 -0.34,-0.748 -1.198,-0.982 -1.963,-1.305 0.344,-0.641 -0.233,-0.992 -0.655,-1.199 0.135,-0.3 0.289,-0.584 0.329,-0.98 -0.29,-0.363 -1.207,-0.102 -1.418,-0.544 0.457,-0.649 -0.596,-1.55 -1.635,-1.415 0.523,-1.685 -1.176,-1.147 -1.962,-1.526 0.042,-1.156 0.754,-1.642 0.763,-2.831 0.161,-0.204 0.715,-0.013 0.872,-0.218 0.047,-0.57 0.423,-0.814 0.548,-1.306 -0.736,-1.32 -1.989,0.601 -2.509,0.108 0.071,-0.435 0.817,-0.199 0.764,-0.761 -0.037,-0.257 -0.338,-0.244 -0.438,-0.437 0.297,-0.574 0.533,-1.209 0.873,-1.741 -0.799,-0.689 -0.4,-2.575 -1.199,-3.268 -0.825,-0.155 -1.764,-0.197 -2.507,-0.435 0.025,-0.931 -1.065,-0.751 -0.981,-1.741 0.497,-0.046 0.923,-0.165 1.526,-0.109 0.743,-0.649 0.089,-1.37 0.215,-2.177 -0.19,-0.096 -0.277,-0.306 -0.651,-0.219 0.172,-0.645 -0.346,-0.597 -0.435,-0.98 0.297,-1.135 0.564,-1.889 0.543,-3.158 1.592,0.197 2.77,-1.384 4.578,-0.981 0.258,-0.033 0.205,-0.377 0.547,-0.326 0.451,0.13 0.761,0.4 1.199,0.545 -0.004,2.325 3.917,1.67 4.251,0.11 0.676,0.021 1.181,-0.128 1.416,-0.544 0.107,-0.818 -0.394,-1.161 -0.109,-1.853 0.645,-0.045 1.328,-0.053 1.526,-0.544 0.994,0.288 1.575,-0.556 2.397,0.109 0.783,-0.961 2.536,-0.952 2.835,-2.396 -0.404,-0.345 -0.416,-0.46 -0.327,-1.198 -0.283,-0.26 -0.854,-0.442 -1.309,-0.216 -0.189,-0.508 -0.209,-0.964 -0.108,-1.525 0.648,0.174 0.598,-0.348 0.983,-0.436 0.497,0.492 1.461,0.404 1.852,0.218 -0.182,0.253 -0.284,0.587 -0.328,0.978 0.744,0.898 1.943,0.119 1.634,-0.869 0.093,0.162 0.276,0.234 0.547,0.216 0.274,-0.523 0.714,-0.883 0.654,-1.74 -0.641,-0.537 -0.717,-0.961 -0.983,-1.853 1.679,0.468 1.638,-1.164 2.293,-1.85 0,0.714 0.327,1.468 1.088,1.088 -0.064,0.536 0.358,0.586 0.873,0.545 0.211,0.66 0.197,1.544 0.87,1.743 0.567,-0.378 1.289,-0.602 2.181,-0.654 0.15,0.731 -0.606,0.554 -0.763,0.981 0.378,0.59 -0.294,1.279 0.327,1.85 -0.307,0.021 -0.465,0.189 -0.437,0.543 0.401,0.443 0.663,1.074 1.526,0.765 0.209,0.349 0.229,0.644 0.109,1.088 1.047,0.142 2.159,0.687 3.38,0.544 1.479,0.794 2.804,3.447 4.686,1.635 0.553,1.261 2.176,1.109 3.489,0.76 0.213,0.79 0.915,0.419 1.744,0.545 -0.046,0.482 0.183,0.691 0.545,0.763 -0.398,0.925 0.565,1.087 1.199,1.307 -0.086,0.447 0.169,0.557 0.109,0.978 1.367,0.652 2.886,0.999 3.491,2.614 -0.259,1.085 -1.111,1.576 -1.311,2.722 1.158,0.06 1.479,1.368 3.048,1.319 -5.807,4.416 -11.113,9.342 -11.742,19.061" /></g></g></g></svg>